<?xml version="1.0" standalone="no"?><!DOCTYPE svg PUBLIC "-//W3C//DTD SVG 1.1//EN" "http://www.w3.org/Graphics/SVG/1.1/DTD/svg11.dtd"><svg t="1519981818995" class="icon" style="" viewBox="0 0 1024 1024" version="1.1" xmlns="http://www.w3.org/2000/svg" p-id="1589" xmlns:xlink="http://www.w3.org/1999/xlink" width="200" height="200"><defs><style type="text/css"></style></defs><path d="M666.4 867l-152.6-37.5L366.6 867V613.1h299.8z" fill="#003DF0" p-id="1590"></path><path d="M366.6 833.6v4.6l147.2-37.5 152.6 37.5v-4.6l-152.6-37.5z" fill="#FFFFFF" p-id="1591"></path><path d="M366.6 809.4v10.3l147.2-37.4 152.6 37.4v-10.3l-152.6-37.5z" fill="#FFFFFF" p-id="1592"></path><path d="M516.4 160.3c20.4 69.3 104.1 96.5 161.3 52.4 3.6-2.8 8.7 0.9 7.2 5.2-24.2 68.1 27.5 139.2 99.7 137.2 4.6-0.1 6.5 5.8 2.7 8.4-59.6 40.8-59.6 128.8 0 169.6 3.8 2.6 1.9 8.5-2.7 8.4-72.2-2-123.9 69.2-99.7 137.2 1.5 4.3-3.5 8-7.2 5.2-57.3-44.1-140.9-16.9-161.3 52.4-1.3 4.4-7.5 4.4-8.8 0-20.4-69.1-104.1-96.3-161.4-52.3-3.6 2.8-8.7-0.9-7.2-5.2 24.2-68.1-27.5-139.2-99.7-137.2-4.6 0.1-6.5-5.8-2.7-8.4 59.6-40.8 59.6-128.8 0-169.6-3.8-2.6-1.9-8.5 2.7-8.4 72.2 2 123.9-69.2 99.7-137.2-1.5-4.3 3.5-8 7.2-5.2 57.3 44.1 140.9 16.9 161.3-52.4 1.4-4.5 7.6-4.5 8.9-0.1z" fill="#FFA326" p-id="1593"></path><path d="M512 699.6l-2.6-4.5c-19.8-34.5-55.6-55.1-95.8-55.1-15.5 0-30.5 3.2-44.5 9.5l-4.8 2.1 0.6-5.2c2.9-26.3-4.1-52.9-19.7-75-16.1-22.8-39.9-38.5-67.2-44.3l-5.1-1.1 3.5-3.9c18.3-20.3 28.3-46.5 28.3-73.8s-10.1-53.5-28.3-73.8l-3.5-3.9 5.1-1.1c27.3-5.8 51.1-21.5 67.2-44.3 15.5-22 22.5-48.7 19.7-75l-0.6-5.2 4.8 2.1c14 6.3 29 9.5 44.5 9.5 40.2 0 76-20.6 95.8-55.1l2.6-4.5 2.6 4.5c19.8 34.5 55.6 55.1 95.8 55.1 15.5 0 30.5-3.2 44.5-9.5l4.8-2.1-0.6 5.2c-2.9 26.3 4.1 52.9 19.7 75 16.1 22.8 39.9 38.5 67.2 44.3l5.1 1.1-3.5 3.9c-18.3 20.3-28.3 46.5-28.3 73.8s10.1 53.5 28.3 73.8l3.5 3.9-5.1 1.1c-27.3 5.8-51.1 21.5-67.2 44.3-15.5 22-22.5 48.7-19.7 75l0.6 5.2-4.8-2.1c-14-6.3-29-9.5-44.5-9.5-40.2 0-76 20.6-95.8 55.1l-2.6 4.5zM413.6 634c20.8 0 41.2 5.4 58.9 15.7 16 9.3 29.6 22.4 39.5 38.1 9.9-15.7 23.5-28.8 39.5-38.1 17.7-10.3 38-15.7 58.9-15.7 14.7 0 28.9 2.7 42.3 8-1.7-26.1 5.8-52.2 21.2-74.1 16-22.7 39.3-38.7 66-45.6-17.2-20.8-26.6-46.9-26.6-74s9.4-53.2 26.6-74c-26.7-6.9-50-22.9-66-45.6-15.4-21.8-22.8-48-21.2-74.1-13.5 5.3-27.7 8-42.3 8-20.8 0-41.2-5.4-58.9-15.7-16-9.3-29.6-22.4-39.5-38.1-9.9 15.7-23.5 28.8-39.5 38.1-17.7 10.3-38.1 15.7-58.9 15.7-14.7 0-28.9-2.7-42.3-8 1.7 26.1-5.8 52.2-21.2 74.1-16 22.7-39.3 38.7-66 45.6 17.2 20.8 26.6 46.9 26.6 74s-9.4 53.2-26.6 74c26.7 6.9 50 22.9 66 45.6 15.4 21.8 22.8 48 21.2 74.1 13.4-5.3 27.7-8 42.3-8z" fill="#FFFFFF" p-id="1594"></path><path d="M512 624.3c-97 0-176-78.9-176-176s78.9-176 176-176 176 78.9 176 176-79 176-176 176z m0-345.9c-93.7 0-170 76.2-170 170s76.2 170 170 170 170-76.2 170-170-76.3-170-170-170z" fill="#FFFFFF" p-id="1595"></path><path d="M512 448.4m-149.9 0a149.9 149.9 0 1 0 299.8 0 149.9 149.9 0 1 0-299.8 0Z" fill="#FFC12A" p-id="1596"></path></svg>