<?xml version="1.0" standalone="no"?><!DOCTYPE svg PUBLIC "-//W3C//DTD SVG 1.1//EN" "http://www.w3.org/Graphics/SVG/1.1/DTD/svg11.dtd"><svg t="1517363756012" class="icon" style="" viewBox="0 0 1024 1024" version="1.1" xmlns="http://www.w3.org/2000/svg" p-id="5066" xmlns:xlink="http://www.w3.org/1999/xlink" width="200" height="200"><defs><style type="text/css"></style></defs><path d="M665.599232 532.48 665.599232 133.12C665.599232 133.12 665.599232 0 511.999232 0S358.399232 133.12 358.399232 133.12l0 399.36c0 0 0 133.12 153.6 133.12S665.599232 532.48 665.599232 532.48z" p-id="5067" fill="#bfbfbf"></path><path d="M230.399232 409.6C204.799232 409.6 204.799232 435.3024 204.799232 435.3024l0 146.7904c0 65.5872 28.7744 255.232 281.6 267.2128L486.399232 972.8 302.079232 972.8l0 51.2 409.6 0 0-51.2L537.599232 972.8l0-123.4944c252.8256-11.9808 281.6-201.6256 281.6-267.2128L819.199232 443.4432C819.199232 443.4432 819.864832 409.6 793.804032 409.6c-26.0608 0-26.0608 33.8432-26.0608 33.8432l0 135.4752c0 67.7376-30.72 220.672-255.7952 220.672-225.0752 0-255.8976-152.9344-255.8976-220.672L256.050432 435.3024C256.101632 435.3024 255.999232 409.6 230.399232 409.6z" p-id="5068" fill="#bfbfbf"></path></svg>