<?xml version="1.0" standalone="no"?><!DOCTYPE svg PUBLIC "-//W3C//DTD SVG 1.1//EN" "http://www.w3.org/Graphics/SVG/1.1/DTD/svg11.dtd"><svg t="1517363722077" class="icon" style="" viewBox="0 0 1024 1024" version="1.1" xmlns="http://www.w3.org/2000/svg" p-id="4225" xmlns:xlink="http://www.w3.org/1999/xlink" width="200" height="200"><defs><style type="text/css"></style></defs><path d="M795.2 198.32L604.2 88a68.65 68.65 0 0 0-93.5 25.05l-287 497.1a68.66 68.66 0 0 0 19.69 90l8.55 39.85 20.28 94.31a33.23 33.23 0 0 0 42.67 24.64l91.82-29.59 38.72-12.48a68.66 68.66 0 0 0 87.81-28l287-497.1a68.65 68.65 0 0 0-25.04-93.46z" fill="#bfbfbf" p-id="4226"></path><path d="M214.586402 939.499768m-9.405 16.289938a18.81 18.81 0 1 0 18.81-32.579876 18.81 18.81 0 1 0-18.81 32.579876Z" fill="#bfbfbf" p-id="4227"></path><path d="M795.2 198.33l-39.52-22.82A68.65 68.65 0 0 1 780.73 269l-287 497.1a68.66 68.66 0 0 1-87.81 28l-38.72 12.45-91.82 29.59c-0.83 0.27-1.65 0.46-2.48 0.66a33.2 33.2 0 0 0 42 22.16l91.82-29.59 38.72-12.48a68.66 68.66 0 0 0 87.81-28l287-497.1a68.65 68.65 0 0 0-25.05-93.46z" fill="#bfbfbf" p-id="4228"></path><path d="M467.74 687a5.71 5.71 0 0 0 7.79-2.09l240.71-416.97a5.7 5.7 0 0 0-9.88-5.7L465.65 679.16a5.71 5.71 0 0 0 2.09 7.84zM389.68 641.88a5.71 5.71 0 0 0 7.79-2.09l240.72-416.92a5.7 5.7 0 1 0-9.88-5.7L387.59 634.09a5.71 5.71 0 0 0 2.09 7.79zM311.63 596.82a5.71 5.71 0 0 0 7.79-2.09l240.71-416.92a5.7 5.7 0 1 0-9.88-5.7L309.54 589a5.71 5.71 0 0 0 2.09 7.82zM468.45 877.77a5.7 5.7 0 0 0 5.7 5.7h355.22a5.7 5.7 0 1 0 0-11.41H474.15a5.7 5.7 0 0 0-5.7 5.71zM829.37 933.8H275.88a5.7 5.7 0 0 0 0 11.41h553.49a5.7 5.7 0 1 0 0-11.41z" fill="#bfbfbf" p-id="4229"></path><path d="M296.59 856.87l128.48-41.4c34 14.35 74.52 0.92 93.06-31.2l287-497.1A74.36 74.36 0 0 0 778 185.86L587 75.59a74.36 74.36 0 0 0-101.29 27.14l-287 497.09C180.14 632 188.77 673.75 218.2 696l28.39 132a39 39 0 0 0 50 28.87z m-38.85-31.27L228.9 691.51a5.69 5.69 0 0 0-2.28-3.45c-26.14-18.54-34.06-54.79-18.05-82.53l287-497.09a62.77 62.77 0 0 1 85.71-23l191 110.27a62.81 62.81 0 0 1 23 85.71l-287 497.1c-16 27.73-51.37 39-80.49 25.63a5.71 5.71 0 0 0-4.13-0.25L293.09 846a27.52 27.52 0 0 1-35.35-20.4z" fill="#bfbfbf" p-id="4230"></path></svg>